<svg viewBox="0 0 330 200" xmlns="http://www.w3.org/2000/svg"><g><g><g><g><g><line x1="50" y1="177.95637709898006" x2="45" y2="177.95637709898006" style="visibility: inherit;" fill="rgb(0, 0, 0)" stroke="rgb(204, 204, 204)" stroke-width="1px"></line><line x1="50" y1="164.29251217730075" x2="45" y2="164.29251217730075" style="visibility: inherit;" fill="rgb(0, 0, 0)" stroke="rgb(204, 204, 204)" stroke-width="1px"></line><line x1="50" y1="150.62864725562144" x2="45" y2="150.62864725562144" style="visibility: inherit;" fill="rgb(0, 0, 0)" stroke="rgb(204, 204, 204)" stroke-width="1px"></line><line x1="50" y1="136.9647823339421" x2="45" y2="136.9647823339421" style="visibility: inherit;" fill="rgb(0, 0, 0)" stroke="rgb(204, 204, 204)" stroke-width="1px"></line><line x1="50" y1="123.30091741226283" x2="45" y2="123.30091741226283" style="visibility: inherit;" fill="rgb(0, 0, 0)" stroke="rgb(204, 204, 204)" stroke-width="1px"></line><line x1="50" y1="109.63705249058351" x2="45" y2="109.63705249058351" style="visibility: inherit;" fill="rgb(0, 0, 0)" stroke="rgb(204, 204, 204)" stroke-width="1px"></line><line x1="50" y1="95.97318756890422" x2="45" y2="95.97318756890422" style="visibility: inherit;" fill="rgb(0, 0, 0)" stroke="rgb(204, 204, 204)" stroke-width="1px"></line><line x1="50" y1="82.3093226472249" x2="45" y2="82.3093226472249" style="visibility: inherit;" fill="rgb(0, 0, 0)" stroke="rgb(204, 204, 204)" stroke-width="1px"></line><line x1="50" y1="68.64545772554557" x2="45" y2="68.64545772554557" style="visibility: inherit;" fill="rgb(0, 0, 0)" stroke="rgb(204, 204, 204)" stroke-width="1px"></line><line x1="50" y1="54.98159280386629" x2="45" y2="54.98159280386629" style="visibility: inherit;" fill="rgb(0, 0, 0)" stroke="rgb(204, 204, 204)" stroke-width="1px"></line><line x1="50" y1="41.31772788218697" x2="45" y2="41.31772788218697" style="visibility: inherit;" fill="rgb(0, 0, 0)" stroke="rgb(204, 204, 204)" stroke-width="1px"></line><line x1="50" y1="27.653862960507695" x2="45" y2="27.653862960507695" style="visibility: inherit;" fill="rgb(0, 0, 0)" stroke="rgb(204, 204, 204)" stroke-width="1px"></line><line x1="50" y1="13.989998038828361" x2="45" y2="13.989998038828361" style="visibility: inherit;" fill="rgb(0, 0, 0)" stroke="rgb(204, 204, 204)" stroke-width="1px"></line><line x1="50" y1="0.32613311714905535" x2="45" y2="0.32613311714905535" style="visibility: inherit;" fill="rgb(0, 0, 0)" stroke="rgb(204, 204, 204)" stroke-width="1px"></line></g><g transform="translate(40, 0)"><text x="0" y="177.95637709898006" dx="0em" dy="0.3em" style="text-anchor: end; visibility: hidden; font-family: &quot;Helvetica Neue&quot;, sans-serif; font-size: 12px; font-weight: 200;" fill="rgb(50, 49, 63)" stroke="none" stroke-width="1px">0.4</text><text x="0" y="164.29251217730075" dx="0em" dy="0.3em" style="text-anchor: end; visibility: inherit; font-family: &quot;Helvetica Neue&quot;, sans-serif; font-size: 12px; font-weight: 200;" fill="rgb(50, 49, 63)" stroke="none" stroke-width="1px">0.45</text><text x="0" y="150.62864725562144" dx="0em" dy="0.3em" style="text-anchor: end; visibility: hidden; font-family: &quot;Helvetica Neue&quot;, sans-serif; font-size: 12px; font-weight: 200;" fill="rgb(50, 49, 63)" stroke="none" stroke-width="1px">0.5</text><text x="0" y="136.9647823339421" dx="0em" dy="0.3em" style="text-anchor: end; visibility: inherit; font-family: &quot;Helvetica Neue&quot;, sans-serif; font-size: 12px; font-weight: 200;" fill="rgb(50, 49, 63)" stroke="none" stroke-width="1px">0.55</text><text x="0" y="123.30091741226283" dx="0em" dy="0.3em" style="text-anchor: end; visibility: hidden; font-family: &quot;Helvetica Neue&quot;, sans-serif; font-size: 12px; font-weight: 200;" fill="rgb(50, 49, 63)" stroke="none" stroke-width="1px">0.6</text><text x="0" y="109.63705249058351" dx="0em" dy="0.3em" style="text-anchor: end; visibility: inherit; font-family: &quot;Helvetica Neue&quot;, sans-serif; font-size: 12px; font-weight: 200;" fill="rgb(50, 49, 63)" stroke="none" stroke-width="1px">0.65</text><text x="0" y="95.97318756890422" dx="0em" dy="0.3em" style="text-anchor: end; visibility: hidden; font-family: &quot;Helvetica Neue&quot;, sans-serif; font-size: 12px; font-weight: 200;" fill="rgb(50, 49, 63)" stroke="none" stroke-width="1px">0.7</text><text x="0" y="82.3093226472249" dx="0em" dy="0.3em" style="text-anchor: end; visibility: inherit; font-family: &quot;Helvetica Neue&quot;, sans-serif; font-size: 12px; font-weight: 200;" fill="rgb(50, 49, 63)" stroke="none" stroke-width="1px">0.75</text><text x="0" y="68.64545772554557" dx="0em" dy="0.3em" style="text-anchor: end; visibility: hidden; font-family: &quot;Helvetica Neue&quot;, sans-serif; font-size: 12px; font-weight: 200;" fill="rgb(50, 49, 63)" stroke="none" stroke-width="1px">0.8</text><text x="0" y="54.98159280386629" dx="0em" dy="0.3em" style="text-anchor: end; visibility: inherit; font-family: &quot;Helvetica Neue&quot;, sans-serif; font-size: 12px; font-weight: 200;" fill="rgb(50, 49, 63)" stroke="none" stroke-width="1px">0.85</text><text x="0" y="41.31772788218697" dx="0em" dy="0.3em" style="text-anchor: end; visibility: hidden; font-family: &quot;Helvetica Neue&quot;, sans-serif; font-size: 12px; font-weight: 200;" fill="rgb(50, 49, 63)" stroke="none" stroke-width="1px">0.9</text><text x="0" y="27.653862960507695" dx="0em" dy="0.3em" style="text-anchor: end; visibility: inherit; font-family: &quot;Helvetica Neue&quot;, sans-serif; font-size: 12px; font-weight: 200;" fill="rgb(50, 49, 63)" stroke="none" stroke-width="1px">0.95</text><text x="0" y="13.989998038828361" dx="0em" dy="0.3em" style="text-anchor: end; visibility: hidden; font-family: &quot;Helvetica Neue&quot;, sans-serif; font-size: 12px; font-weight: 200;" fill="rgb(50, 49, 63)" stroke="none" stroke-width="1px">1</text><text x="0" y="0.32613311714905535" dx="0em" dy="0.3em" style="text-anchor: end; visibility: hidden; font-family: &quot;Helvetica Neue&quot;, sans-serif; font-size: 12px; font-weight: 200;" fill="rgb(50, 49, 63)" stroke="none" stroke-width="1px">1.05</text></g><line x1="50" y1="0" x2="50" y2="178" fill="rgb(0, 0, 0)" stroke="rgb(204, 204, 204)" stroke-width="1px"></line></g></g><g transform="translate(50, 0)" clip-path="url(#clip_0)"><clipPath id="clip_0"><rect width="280" height="178"></rect></clipPath><g><g><g><line x1="0.13086870305981857" y1="0" x2="0.13086870305981857" y2="178" fill="rgb(0, 0, 0)" stroke="rgb(60, 60, 60)" stroke-width="1px" opacity="0.25"></line><line x1="25.532537913944733" y1="0" x2="25.532537913944733" y2="178" fill="rgb(0, 0, 0)" stroke="rgb(60, 60, 60)" stroke-width="1px" opacity="0.25"></line><line x1="50.93420712482965" y1="0" x2="50.93420712482965" y2="178" fill="rgb(0, 0, 0)" stroke="rgb(60, 60, 60)" stroke-width="1px" opacity="0.25"></line><line x1="76.33587633571457" y1="0" x2="76.33587633571457" y2="178" fill="rgb(0, 0, 0)" stroke="rgb(60, 60, 60)" stroke-width="1px" opacity="0.25"></line><line x1="101.73754554659949" y1="0" x2="101.73754554659949" y2="178" fill="rgb(0, 0, 0)" stroke="rgb(60, 60, 60)" stroke-width="1px" opacity="0.25"></line><line x1="127.13921475748442" y1="0" x2="127.13921475748442" y2="178" fill="rgb(0, 0, 0)" stroke="rgb(60, 60, 60)" stroke-width="1px" opacity="0.25"></line><line x1="152.54088396836931" y1="0" x2="152.54088396836931" y2="178" fill="rgb(0, 0, 0)" stroke="rgb(60, 60, 60)" stroke-width="1px" opacity="0.25"></line><line x1="177.94255317925425" y1="0" x2="177.94255317925425" y2="178" fill="rgb(0, 0, 0)" stroke="rgb(60, 60, 60)" stroke-width="1px" opacity="0.25"></line><line x1="203.34422239013918" y1="0" x2="203.34422239013918" y2="178" fill="rgb(0, 0, 0)" stroke="rgb(60, 60, 60)" stroke-width="1px" opacity="0.25"></line><line x1="228.7458916010241" y1="0" x2="228.7458916010241" y2="178" fill="rgb(0, 0, 0)" stroke="rgb(60, 60, 60)" stroke-width="1px" opacity="0.25"></line><line x1="254.147560811909" y1="0" x2="254.147560811909" y2="178" fill="rgb(0, 0, 0)" stroke="rgb(60, 60, 60)" stroke-width="1px" opacity="0.25"></line><line x1="279.54923002279395" y1="0" x2="279.54923002279395" y2="178" fill="rgb(0, 0, 0)" stroke="rgb(60, 60, 60)" stroke-width="1px" opacity="0.25"></line></g><g><line x1="0" y1="177.95637709898006" x2="280" y2="177.95637709898006" fill="rgb(0, 0, 0)" stroke="rgb(60, 60, 60)" stroke-width="1px" opacity="0.25"></line><line x1="0" y1="164.29251217730075" x2="280" y2="164.29251217730075" fill="rgb(0, 0, 0)" stroke="rgb(60, 60, 60)" stroke-width="1px" opacity="0.25"></line><line x1="0" y1="150.62864725562144" x2="280" y2="150.62864725562144" fill="rgb(0, 0, 0)" stroke="rgb(60, 60, 60)" stroke-width="1px" opacity="0.25"></line><line x1="0" y1="136.9647823339421" x2="280" y2="136.9647823339421" fill="rgb(0, 0, 0)" stroke="rgb(60, 60, 60)" stroke-width="1px" opacity="0.25"></line><line x1="0" y1="123.30091741226283" x2="280" y2="123.30091741226283" fill="rgb(0, 0, 0)" stroke="rgb(60, 60, 60)" stroke-width="1px" opacity="0.25"></line><line x1="0" y1="109.63705249058351" x2="280" y2="109.63705249058351" fill="rgb(0, 0, 0)" stroke="rgb(60, 60, 60)" stroke-width="1px" opacity="0.25"></line><line x1="0" y1="95.97318756890422" x2="280" y2="95.97318756890422" fill="rgb(0, 0, 0)" stroke="rgb(60, 60, 60)" stroke-width="1px" opacity="0.25"></line><line x1="0" y1="82.3093226472249" x2="280" y2="82.3093226472249" fill="rgb(0, 0, 0)" stroke="rgb(60, 60, 60)" stroke-width="1px" opacity="0.25"></line><line x1="0" y1="68.64545772554557" x2="280" y2="68.64545772554557" fill="rgb(0, 0, 0)" stroke="rgb(60, 60, 60)" stroke-width="1px" opacity="0.25"></line><line x1="0" y1="54.98159280386629" x2="280" y2="54.98159280386629" fill="rgb(0, 0, 0)" stroke="rgb(60, 60, 60)" stroke-width="1px" opacity="0.25"></line><line x1="0" y1="41.31772788218697" x2="280" y2="41.31772788218697" fill="rgb(0, 0, 0)" stroke="rgb(60, 60, 60)" stroke-width="1px" opacity="0.25"></line><line x1="0" y1="27.653862960507695" x2="280" y2="27.653862960507695" fill="rgb(0, 0, 0)" stroke="rgb(60, 60, 60)" stroke-width="1px" opacity="0.25"></line><line x1="0" y1="13.989998038828361" x2="280" y2="13.989998038828361" fill="rgb(0, 0, 0)" stroke="rgb(60, 60, 60)" stroke-width="1px" opacity="0.25"></line><line x1="0" y1="0.32613311714905535" x2="280" y2="0.32613311714905535" fill="rgb(0, 0, 0)" stroke="rgb(60, 60, 60)" stroke-width="1px" opacity="0.25"></line></g></g></g><g><g><line x1="0" y1="287.2672964724145" x2="280" y2="287.2672964724145" fill="rgb(0, 0, 0)" stroke="rgb(153, 153, 153)" stroke-width="1.5px"></line></g></g><g><g><line x1="25.532537913944733" y1="0" x2="25.532537913944733" y2="178" fill="rgb(0, 0, 0)" stroke="rgb(153, 153, 153)" stroke-width="1.5px"></line></g></g><g><g><g><g><g><path stroke="rgb(204, 51, 17)" stroke-width="2px" d="M25.532537913944733,136.4093379424504L50.93420712482965,101.69423654055421L76.33587633571457,89.48019001490958L101.73754554659949,68.77615266741036L127.13921475748442,58.50489201502823" style="fill: none;" fill="none"></path></g><g><path stroke="rgb(0, 119, 187)" stroke-width="2px" d="M25.532537913944733,142.63029492929815L50.93420712482965,143.74117719684307L76.33587633571457,144.08124319711192L101.73754554659949,144.23127231487757L127.13921475748442,144.30779653525076" style="fill: none;" fill="none"></path></g><g><path stroke="rgb(187, 187, 187)" stroke-width="2px" d="M25.532537913944733,144.40770655737L50.93420712482965,144.40770655737L76.33587633571457,104.84665364021923L101.73754554659949,75.85558455217891L127.13921475748442,61.068328632880025" style="fill: none;" fill="none"></path></g><g><path stroke="rgb(0, 153, 136)" stroke-width="2px" d="M25.532537913944733,55.31485096869123L50.93420712482965,48.510697079978684L76.33587633571457,44.38739682671894L101.73754554659949,41.75146109151791L127.13921475748442,42.04516146176965L152.54088396836931,39.968766804894045L177.94255317925425,37.872416061678706L203.34422239013918,36.29125017915089L228.7458916010241,35.3597204917794L254.147560811909,33.73391273773788" style="fill: none;" fill="none"></path></g><g><path stroke="rgb(238, 51, 119)" stroke-width="2px" d="M25.532537913944733,55.98138032921818L50.93420712482965,46.12230020475721L76.33587633571457,42.19736347447929L101.73754554659949,39.54684539421845L127.13921475748442,39.92947169078812L152.54088396836931,38.18145002411441L177.94255317925425,35.26630511292939L203.34422239013918,34.47422548467105L228.7458916010241,32.391623306984684L254.147560811909,32.049688094570996" style="fill: none;" fill="none"></path></g><g><path stroke="rgb(51, 187, 238)" stroke-width="2px" d="M25.532537913944733,55.537027422200225L50.93420712482965,46.09452814806855L76.33587633571457,41.503628833930804L101.73754554659949,38.15089113301681L127.13921475748442,35.66987484036113L152.54088396836931,34.683658298313276L177.94255317925425,33.025064298226425L203.34422239013918,31.69857567439675L228.7458916010241,29.929558401528737L254.147560811909,28.432571038951124" style="fill: none;" fill="none"></path></g><g><path stroke="rgb(204, 51, 17)" stroke-width="2px" d="M25.532537913944733,56.8701024318504L50.93420712482965,47.28873269390294L76.33587633571457,43.108743346982806L101.73754554659949,40.03939260472583L127.13921475748442,38.28110435875422" style="fill: none;" fill="none"></path></g><g><path stroke="rgb(0, 119, 187)" stroke-width="2px" d="M25.532537913944733,144.18553010386103L50.93420712482965,144.32439038730413L76.33587633571457,144.36689863733775L101.73754554659949,144.38565227705848L127.13921475748442,129.36244571725538" style="fill: none;" fill="none"></path></g><g><path stroke="rgb(238, 51, 119)" stroke-width="2px" d="M25.532537913944733,155.9608902841351L50.93420712482965,156.51633141790757L76.33587633571457,156.686364418042L101.73754554659949,152.47304295133873L127.13921475748442,148.97489219059585" style="fill: none;" fill="none"></path></g><g><path stroke="rgb(51, 187, 238)" stroke-width="2px" d="M25.532537913944733,150.40647080211247L50.93420712482965,143.1857258826979L76.33587633571457,105.83510716136237L101.73754554659949,77.20661073275619L127.13921475748442,61.54428735114631" style="fill: none;" fill="none"></path></g><g><path stroke="rgb(255, 112, 67)" stroke-width="2px" d="M25.532537913944733,25.765366363400602L50.93420712482965,28.681432315705962L76.33587633571457,27.533709564798613L101.73754554659949,26.823154993158425L127.13921475748442,25.882544784404672L152.54088396836931,25.8333795634544L177.94255317925425,24.15964340212389L203.34422239013918,22.191624042443607L228.7458916010241,20.134430004520596L254.147560811909,18.913462635109056" style="fill: none;" fill="none"></path></g><g><path stroke="rgb(255, 112, 67)" stroke-width="2px" d="M25.532537913944733,53.75961579412838L50.93420712482965,41.678760954204876L76.33587633571457,36.39356541691927L101.73754554659949,33.14293315709622L127.13921475748442,30.135814018183282" style="fill: none;" fill="none"></path></g><g><path stroke="rgb(0, 153, 136)" stroke-width="2px" d="M25.532537913944733,64.64627830466469L50.93420712482965,46.17784024598538L76.33587633571457,40.52423675863457L101.73754554659949,37.723690477208265L127.13921475748442,34.07886880056702L152.54088396836931,32.455121919278895L177.94255317925425,30.890744705194095L203.34422239013918,28.986347979170148L228.7458916010241,27.774614431944002L254.147560811909,26.78720354567608L25.532537913944733,36.545122912403286L50.93420712482965,35.96452086747743L76.33587633571457,33.74824666740386L101.73754554659949,32.6871569854292L127.13921475748442,30.628437408814136" style="fill: none;" fill="none"></path></g></g></g></g><g opacity="0.2"><g><g><g><path stroke="rgb(204, 51, 17)" stroke-width="2px" d="M25.532537913944733,136.4093379424504L50.93420712482965,80.86517569941653L76.33587633571457,77.7547053502908L101.73754554659949,44.42820474675122L127.13921475748442,45.09473410727816" style="fill: none;" fill="none"></path></g><g><path stroke="rgb(0, 119, 187)" stroke-width="2px" d="M25.532537913944733,142.63029492929815L50.93420712482965,144.40770655737L76.33587633571457,144.40770655737L101.73754554659949,144.40770655737L127.13921475748442,144.40770655737" style="fill: none;" fill="none"></path></g><g><path stroke="rgb(187, 187, 187)" stroke-width="2px" d="M25.532537913944733,144.40770655737L50.93420712482965,144.40770655737L76.33587633571457,66.86804283975448L101.73754554659949,41.76208730464347L127.13921475748442,41.76208730464347" style="fill: none;" fill="none"></path></g><g><path stroke="rgb(0, 153, 136)" stroke-width="2px" d="M25.532537913944733,55.31485096869123L50.93420712482965,44.42820474675122L76.33587633571457,40.42902858358957L101.73754554659949,38.65160066692144L127.13921475748442,42.42861666517038L152.54088396836931,37.096365492358586L177.94255317925425,34.87460095726877L203.34422239013918,33.98589514323285L228.7458916010241,33.98589514323285L254.147560811909,31.319777701125105" style="fill: none;" fill="none"></path></g><g><path stroke="rgb(238, 51, 119)" stroke-width="2px" d="M25.532537913944733,55.98138032921818L50.93420712482965,40.20685213008059L76.33587633571457,38.42942421341246L101.73754554659949,36.42983613183165L127.13921475748442,40.42902858358957L152.54088396836931,35.76330677130471L177.94255317925425,31.097601247616126L203.34422239013918,33.319365782705916L228.7458916010241,29.320189619544294L254.147560811909,31.541954154634084" style="fill: none;" fill="none"></path></g><g><path stroke="rgb(51, 187, 238)" stroke-width="2px" d="M25.532537913944733,55.537027422200225L50.93420712482965,40.42902858358957L76.33587633571457,37.096365492358586L101.73754554659949,34.20807159674186L127.13921475748442,32.43065996867L152.54088396836931,33.319365782705916L177.94255317925425,30.653248340598168L203.34422239013918,29.764542526562252L228.7458916010241,27.320601537963455L254.147560811909,26.20971927041856" style="fill: none;" fill="none"></path></g><g><path stroke="rgb(204, 51, 17)" stroke-width="2px" d="M25.532537913944733,56.8701024318504L50.93420712482965,41.539910851134465L76.33587633571457,39.0959535739394L101.73754554659949,36.42983613183165L127.13921475748442,35.98548322481369" style="fill: none;" fill="none"></path></g><g><path stroke="rgb(0, 119, 187)" stroke-width="2px" d="M25.532537913944733,144.18553010386103L50.93420712482965,144.40770655737L76.33587633571457,144.40770655737L101.73754554659949,144.40770655737L127.13921475748442,109.74814723277653" style="fill: none;" fill="none"></path></g><g><path stroke="rgb(238, 51, 119)" stroke-width="2px" d="M25.532537913944733,155.9608902841351L50.93420712482965,156.84959609817102L76.33587633571457,156.84959609817102L101.73754554659949,147.5181769064957L127.13921475748442,144.40770655737" style="fill: none;" fill="none"></path></g><g><path stroke="rgb(51, 187, 238)" stroke-width="2px" d="M25.532537913944733,150.40647080211247L50.93420712482965,138.8532789310492L76.33587633571457,69.9785131888802L101.73754554659949,43.539498932715304L127.13921475748442,41.09555794411651" style="fill: none;" fill="none"></path></g><g><path stroke="rgb(255, 112, 67)" stroke-width="2px" d="M25.532537913944733,25.765366363400602L50.93420712482965,30.43107188708919L76.33587633571457,26.43189572392754L101.73754554659949,25.98754281690958L127.13921475748442,24.654484095855707L152.54088396836931,25.765366363400602L177.94255317925425,21.76617391164268L203.34422239013918,19.322232923043885L228.7458916010241,17.100468387954095L254.147560811909,17.100468387954095" style="fill: none;" fill="none"></path></g><g><path stroke="rgb(255, 112, 67)" stroke-width="2px" d="M25.532537913944733,53.75961579412838L50.93420712482965,34.43024805025081L76.33587633571457,31.319777701125105L101.73754554659949,29.320189619544294L127.13921475748442,26.20971927041856" style="fill: none;" fill="none"></path></g><g><path stroke="rgb(0, 153, 136)" stroke-width="2px" d="M25.532537913944733,64.64627830466469L50.93420712482965,35.096777410777776L76.33587633571457,35.096777410777776L101.73754554659949,34.43024805025081L127.13921475748442,29.320189619544294L152.54088396836931,30.20889543358021L177.94255317925425,28.65366025901733L203.34422239013918,26.20971927041856L228.7458916010241,25.98754281690958L254.147560811909,25.321013456382644L25.532537913944733,51.09349835202062L50.93420712482965,35.096777410777776L76.33587633571457,30.43107188708919L101.73754554659949,31.097601247616126L127.13921475748442,27.542777991472462" style="fill: none;" fill="none"></path></g></g></g></g></g></g><g transform="translate(50, 178)" clip-path="url(#clip_1)"><clipPath id="clip_1"><rect width="280" height="22"></rect></clipPath><g><g><line x1="0.13086870305981857" y1="0" x2="0.13086870305981857" y2="5" style="visibility: inherit;" fill="rgb(0, 0, 0)" stroke="rgb(204, 204, 204)" stroke-width="1px"></line><line x1="25.532537913944733" y1="0" x2="25.532537913944733" y2="5" style="visibility: inherit;" fill="rgb(0, 0, 0)" stroke="rgb(204, 204, 204)" stroke-width="1px"></line><line x1="50.93420712482965" y1="0" x2="50.93420712482965" y2="5" style="visibility: inherit;" fill="rgb(0, 0, 0)" stroke="rgb(204, 204, 204)" stroke-width="1px"></line><line x1="76.33587633571457" y1="0" x2="76.33587633571457" y2="5" style="visibility: inherit;" fill="rgb(0, 0, 0)" stroke="rgb(204, 204, 204)" stroke-width="1px"></line><line x1="101.73754554659949" y1="0" x2="101.73754554659949" y2="5" style="visibility: inherit;" fill="rgb(0, 0, 0)" stroke="rgb(204, 204, 204)" stroke-width="1px"></line><line x1="127.13921475748442" y1="0" x2="127.13921475748442" y2="5" style="visibility: inherit;" fill="rgb(0, 0, 0)" stroke="rgb(204, 204, 204)" stroke-width="1px"></line><line x1="152.54088396836931" y1="0" x2="152.54088396836931" y2="5" style="visibility: inherit;" fill="rgb(0, 0, 0)" stroke="rgb(204, 204, 204)" stroke-width="1px"></line><line x1="177.94255317925425" y1="0" x2="177.94255317925425" y2="5" style="visibility: inherit;" fill="rgb(0, 0, 0)" stroke="rgb(204, 204, 204)" stroke-width="1px"></line><line x1="203.34422239013918" y1="0" x2="203.34422239013918" y2="5" style="visibility: inherit;" fill="rgb(0, 0, 0)" stroke="rgb(204, 204, 204)" stroke-width="1px"></line><line x1="228.7458916010241" y1="0" x2="228.7458916010241" y2="5" style="visibility: inherit;" fill="rgb(0, 0, 0)" stroke="rgb(204, 204, 204)" stroke-width="1px"></line><line x1="254.147560811909" y1="0" x2="254.147560811909" y2="5" style="visibility: inherit;" fill="rgb(0, 0, 0)" stroke="rgb(204, 204, 204)" stroke-width="1px"></line><line x1="279.54923002279395" y1="0" x2="279.54923002279395" y2="5" style="visibility: inherit;" fill="rgb(0, 0, 0)" stroke="rgb(204, 204, 204)" stroke-width="1px"></line></g><g transform="translate(0, 8)"><text x="0.13086870305981857" y="0" dx="0em" dy="0.95em" style="text-anchor: middle; visibility: hidden; font-family: &quot;Helvetica Neue&quot;, sans-serif; font-size: 12px; font-weight: 200;" fill="rgb(50, 49, 63)" stroke="none" stroke-width="1px">-1</text><text x="25.532537913944733" y="0" dx="0em" dy="0.95em" style="text-anchor: middle; visibility: inherit; font-family: &quot;Helvetica Neue&quot;, sans-serif; font-size: 12px; font-weight: 200;" fill="rgb(50, 49, 63)" stroke="none" stroke-width="1px">0</text><text x="50.93420712482965" y="0" dx="0em" dy="0.95em" style="text-anchor: middle; visibility: inherit; font-family: &quot;Helvetica Neue&quot;, sans-serif; font-size: 12px; font-weight: 200;" fill="rgb(50, 49, 63)" stroke="none" stroke-width="1px">1</text><text x="76.33587633571457" y="0" dx="0em" dy="0.95em" style="text-anchor: middle; visibility: inherit; font-family: &quot;Helvetica Neue&quot;, sans-serif; font-size: 12px; font-weight: 200;" fill="rgb(50, 49, 63)" stroke="none" stroke-width="1px">2</text><text x="101.73754554659949" y="0" dx="0em" dy="0.95em" style="text-anchor: middle; visibility: inherit; font-family: &quot;Helvetica Neue&quot;, sans-serif; font-size: 12px; font-weight: 200;" fill="rgb(50, 49, 63)" stroke="none" stroke-width="1px">3</text><text x="127.13921475748442" y="0" dx="0em" dy="0.95em" style="text-anchor: middle; visibility: inherit; font-family: &quot;Helvetica Neue&quot;, sans-serif; font-size: 12px; font-weight: 200;" fill="rgb(50, 49, 63)" stroke="none" stroke-width="1px">4</text><text x="152.54088396836931" y="0" dx="0em" dy="0.95em" style="text-anchor: middle; visibility: inherit; font-family: &quot;Helvetica Neue&quot;, sans-serif; font-size: 12px; font-weight: 200;" fill="rgb(50, 49, 63)" stroke="none" stroke-width="1px">5</text><text x="177.94255317925425" y="0" dx="0em" dy="0.95em" style="text-anchor: middle; visibility: inherit; font-family: &quot;Helvetica Neue&quot;, sans-serif; font-size: 12px; font-weight: 200;" fill="rgb(50, 49, 63)" stroke="none" stroke-width="1px">6</text><text x="203.34422239013918" y="0" dx="0em" dy="0.95em" style="text-anchor: middle; visibility: inherit; font-family: &quot;Helvetica Neue&quot;, sans-serif; font-size: 12px; font-weight: 200;" fill="rgb(50, 49, 63)" stroke="none" stroke-width="1px">7</text><text x="228.7458916010241" y="0" dx="0em" dy="0.95em" style="text-anchor: middle; visibility: inherit; font-family: &quot;Helvetica Neue&quot;, sans-serif; font-size: 12px; font-weight: 200;" fill="rgb(50, 49, 63)" stroke="none" stroke-width="1px">8</text><text x="254.147560811909" y="0" dx="0em" dy="0.95em" style="text-anchor: middle; visibility: inherit; font-family: &quot;Helvetica Neue&quot;, sans-serif; font-size: 12px; font-weight: 200;" fill="rgb(50, 49, 63)" stroke="none" stroke-width="1px">9</text><text x="279.54923002279395" y="0" dx="0em" dy="0.95em" style="text-anchor: middle; visibility: hidden; font-family: &quot;Helvetica Neue&quot;, sans-serif; font-size: 12px; font-weight: 200;" fill="rgb(50, 49, 63)" stroke="none" stroke-width="1px">10</text></g><line x1="0" y1="0" x2="280" y2="0" fill="rgb(0, 0, 0)" stroke="rgb(204, 204, 204)" stroke-width="1px"></line></g></g></g></g></svg>